HIERARCHY
ROOT Hips
{
  OFFSET 5.80788e-005 67.184 3.4734
  CHANNELS 6 Xposition Yposition Zposition Zrotation Xrotation Yrotation
  JOINT Chest
  {
    OFFSET 0 8.7983 -4.7612
    CHANNELS 3 Zrotation Xrotation Yrotation
    JOINT Chest2
    {
      OFFSET 0 8.0291 0.4195
      CHANNELS 3 Zrotation Xrotation Yrotation
      JOINT Chest3
      {
        OFFSET 0 9.9351 -2.2114
        CHANNELS 3 Zrotation Xrotation Yrotation
        JOINT Neck
        {
          OFFSET 0 22.3885 -0.4656
          CHANNELS 3 Zrotation Xrotation Yrotation
          JOINT Head
          {
            OFFSET -0.0001 12.643 3.4389
            CHANNELS 3 Zrotation Xrotation Yrotation
            End Site
            {
              OFFSET 0.0001 17.6655 0.5274
            }
          }
        }
        JOINT LeftCollar
        {
          OFFSET 2.2603 21.606 7.4023
          CHANNELS 3 Zrotation Xrotation Yrotation
          JOINT LeftShoulder
          {
            OFFSET 13.5163 -1.1332 -5.0146
            CHANNELS 3 Zrotation Xrotation Yrotation
            JOINT LeftElbow
            {
              OFFSET -0.0995 -28.05 -0.2431
              CHANNELS 3 Zrotation Xrotation Yrotation
              JOINT LeftWrist
              {
                OFFSET 0.0679 -23.3996 -0.1402
                CHANNELS 3 Zrotation Xrotation Yrotation
                JOINT LeftFinger1
                {
                  OFFSET 0.7932 -9.069 2.5189
                  CHANNELS 3 Zrotation Xrotation Yrotation
                  JOINT LeftFinger11
                  {
                    OFFSET -0.8272 -3.3923 0.5977
                    CHANNELS 3 Zrotation Xrotation Yrotation
                    JOINT LeftFinger12
                    {
                      OFFSET -0.5649 -2.3158 0.4082
                      CHANNELS 3 Zrotation Xrotation Yrotation
                      End Site
                      {
                        OFFSET -0.4919 -1.6479 0.2673
                      }
                    }
                  }
                }
                JOINT LeftFinger2
                {
                  OFFSET 0.9159 -9.2044 0.2193
                  CHANNELS 3 Zrotation Xrotation Yrotation
                  JOINT LeftFinger21
                  {
                    OFFSET 0.0117 -4.1944 -0.0248
                    CHANNELS 3 Zrotation Xrotation Yrotation
                    JOINT LeftFinger22
                    {
                      OFFSET 0.0071 -2.3249 -0.0142
                      CHANNELS 3 Zrotation Xrotation Yrotation
                      End Site
                      {
                        OFFSET -0.1475 -2.0882 0.0028
                      }
                    }
                  }
                }
                JOINT LeftFinger3
                {
                  OFFSET 0.6113 -8.7231 -2.0637
                  CHANNELS 3 Zrotation Xrotation Yrotation
                  JOINT LeftFinger31
                  {
                    OFFSET -0.1927 -3.8059 -0.2383
                    CHANNELS 3 Zrotation Xrotation Yrotation
                    JOINT LeftFinger32
                    {
                      OFFSET -0.1091 -2.1688 -0.1362
                      CHANNELS 3 Zrotation Xrotation Yrotation
                      End Site
                      {
                        OFFSET -0.2358 -1.9176 -0.0906
                      }
                    }
                  }
                }
                JOINT LeftFinger4
                {
                  OFFSET -0.6151 -8.0947 -3.5641
                  CHANNELS 3 Zrotation Xrotation Yrotation
                  JOINT LeftFinger41
                  {
                    OFFSET -0.4882 -2.341 -0.6462
                    CHANNELS 3 Zrotation Xrotation Yrotation
                    JOINT LeftFinger42
                    {
                      OFFSET -0.3575 -1.7167 -0.4742
                      CHANNELS 3 Zrotation Xrotation Yrotation
                      End Site
                      {
                        OFFSET -0.4187 -1.5237 -0.3496
                      }
                    }
                  }
                }
                JOINT LeftFinger0
                {
                  OFFSET -1.42 -1.8761 1.4223
                  CHANNELS 3 Zrotation Xrotation Yrotation
                  JOINT LeftFinger01
                  {
                    OFFSET -1.1471 -3.4929 2.6334
                    CHANNELS 3 Zrotation Xrotation Yrotation
                    JOINT LeftFinger02
                    {
                      OFFSET -0.823 -2.3 1.6571
                      CHANNELS 3 Zrotation Xrotation Yrotation
                      End Site
                      {
                        OFFSET -0.5822 -1.6914 1.1582
                      }
                    }
                  }
                }
              }
            }
          }
        }
        JOINT RightCollar
        {
          OFFSET -2.2603 21.606 7.4023
          CHANNELS 3 Zrotation Xrotation Yrotation
          JOINT RightShoulder
          {
            OFFSET -13.5187 -1.1334 -5.0155
            CHANNELS 3 Zrotation Xrotation Yrotation
            JOINT RightElbow
            {
              OFFSET 0.0994 -28.0499 -0.2431
              CHANNELS 3 Zrotation Xrotation Yrotation
              JOINT RightWrist
              {
                OFFSET -0.0679 -23.3996 -0.1402
                CHANNELS 3 Zrotation Xrotation Yrotation
                JOINT RightFinger1
                {
                  OFFSET -0.7932 -9.0691 2.5189
                  CHANNELS 3 Zrotation Xrotation Yrotation
                  JOINT RightFinger11
                  {
                    OFFSET 0.8272 -3.3923 0.5977
                    CHANNELS 3 Zrotation Xrotation Yrotation
                    JOINT RightFinger12
                    {
                      OFFSET 0.565 -2.3158 0.4082
                      CHANNELS 3 Zrotation Xrotation Yrotation
                      End Site
                      {
                        OFFSET 0.4919 -1.6479 0.2673
                      }
                    }
                  }
                }
                JOINT RightFinger2
                {
                  OFFSET -0.916 -9.2044 0.2193
                  CHANNELS 3 Zrotation Xrotation Yrotation
                  JOINT RightFinger21
                  {
                    OFFSET -0.0117 -4.1944 -0.0248
                    CHANNELS 3 Zrotation Xrotation Yrotation
                    JOINT RightFinger22
                    {
                      OFFSET -0.0071 -2.3249 -0.0142
                      CHANNELS 3 Zrotation Xrotation Yrotation
                      End Site
                      {
                        OFFSET 0.1475 -2.0882 0.0028
                      }
                    }
                  }
                }
                JOINT RightFinger3
                {
                  OFFSET -0.6113 -8.7231 -2.0637
                  CHANNELS 3 Zrotation Xrotation Yrotation
                  JOINT RightFinger31
                  {
                    OFFSET 0.1927 -3.8059 -0.2383
                    CHANNELS 3 Zrotation Xrotation Yrotation
                    JOINT RightFinger32
                    {
                      OFFSET 0.1091 -2.1688 -0.1362
                      CHANNELS 3 Zrotation Xrotation Yrotation
                      End Site
                      {
                        OFFSET 0.2358 -1.9176 -0.0906
                      }
                    }
                  }
                }
                JOINT RightFinger4
                {
                  OFFSET 0.6151 -8.0947 -3.564
                  CHANNELS 3 Zrotation Xrotation Yrotation
                  JOINT RightFinger41
                  {
                    OFFSET 0.4882 -2.341 -0.6462
                    CHANNELS 3 Zrotation Xrotation Yrotation
                    JOINT RightFinger42
                    {
                      OFFSET 0.3574 -1.7166 -0.4742
                      CHANNELS 3 Zrotation Xrotation Yrotation
                      End Site
                      {
                        OFFSET 0.4187 -1.5237 -0.3496
                      }
                    }
                  }
                }
                JOINT RightFinger0
                {
                  OFFSET 1.4199 -1.8761 1.4221
                  CHANNELS 3 Zrotation Xrotation Yrotation
                  JOINT RightFinger01
                  {
                    OFFSET 1.1472 -3.4929 2.6336
                    CHANNELS 3 Zrotation Xrotation Yrotation
                    JOINT RightFinger02
                    {
                      OFFSET 0.8229 -2.3 1.6571
                      CHANNELS 3 Zrotation Xrotation Yrotation
                      End Site
                      {
                        OFFSET 0.5822 -1.6914 1.1582
                      }
                    }
                  }
                }
              }
            }
          }
        }
      }
    }
  }
  JOINT RightHip
  {
    OFFSET -9.412 3.9771 -0.7758
    CHANNELS 3 Zrotation Xrotation Yrotation
    JOINT RightKnee
    {
      OFFSET -0.7531 -40.938 0
      CHANNELS 3 Zrotation Xrotation Yrotation
      JOINT RightAnkle
      {
        OFFSET 0 -40.1986 0
        CHANNELS 3 Zrotation Xrotation Yrotation
        JOINT RightToe
        {
          OFFSET 0 -4.4182 9.239
          CHANNELS 3 Zrotation Xrotation Yrotation
          End Site
          {
            OFFSET 0 0 6.1981
          }
        }
      }
    }
  }
  JOINT LeftHip
  {
    OFFSET 9.4119 3.9773 -0.7758
    CHANNELS 3 Zrotation Xrotation Yrotation
    JOINT LeftKnee
    {
      OFFSET 0.7532 -40.9383 0
      CHANNELS 3 Zrotation Xrotation Yrotation
      JOINT LeftAnkle
      {
        OFFSET 0 -40.1986 0
        CHANNELS 3 Zrotation Xrotation Yrotation
        JOINT LeftToe
        {
          OFFSET 0 -4.4182 9.239
          CHANNELS 3 Zrotation Xrotation Yrotation
          End Site
          {
            OFFSET 0 0 6.1981
          }
        }
      }
    }
  }
}
MOTION
Frames:	4
Frame Time:	0.0333333
-0.007326 9.0613 68.0397 -0.00886773 -71.0095 179.991 0.0287844 -2.49678 0.0462665 0.0596741 -4.99356 0.0939238 0.0596742 -4.99356 0.093924 -1.43864e-006 -1.74409 -2.22752e-006 -0.0512736 2.05665 -0.00917398 28.5332 29.78 -42.5915 106.139 -4.48178 114.168 -81.8541 -76.4336 -40.5409 -21.1848 -25.6054 -27.303 -4.34791e-006 1.22921e-006 -2.10231e-006 1.59028e-015 -3.18055e-015 -9.54166e-015 4.34791e-006 -1.22921e-006 2.10231e-006 -4.34791e-006 1.22921e-006 -2.10231e-006 -0.0128233 0.00232333 8.61108e-005 -6.93161e-007 -2.18497e-008 1.42097e-006 -4.34791e-006 1.22921e-006 -2.10231e-006 -0.0160644 0.00299597 0.000858571 1.76556e-031 3.18055e-015 -3.18055e-015 -4.34791e-006 1.22921e-006 -2.10231e-006 -0.0125991 0.00312643 0.0028287 3.18055e-015 -3.18055e-015 -9.54166e-015 -4.34791e-006 1.22921e-006 -2.10231e-006 1.59028e-015 -3.18055e-015 -9.54166e-015 4.34791e-006 -1.22921e-006 2.10231e-006 -29.2785 29.541 37.491 -103.943 -9.28256 -115.605 81.0095 -76.4144 39.1395 20.6896 -26.1394 27.0822 1.81301e-006 1.35486e-006 1.91927e-006 -3.99594e-007 -5.16438e-006 -4.96262e-006 -6.70163e-007 1.78611e-006 1.63799e-006 1.81301e-006 1.35486e-006 1.91927e-006 0.0129508 0.00231824 -8.79389e-005 6.03665e-006 2.31508e-006 3.88745e-006 1.81301e-006 1.35486e-006 1.91927e-006 0.0163581 0.00303295 -0.000878803 4.29611e-006 1.89786e-006 2.20079e-006 1.81301e-006 1.35486e-006 1.91927e-006 0.0146119 0.00368267 -0.00327224 -1.48637e-006 -3.67882e-006 2.81055e-006 1.81301e-006 1.35486e-006 1.91927e-006 -3.99594e-007 -5.16438e-006 -4.96262e-006 -6.70163e-007 1.78611e-006 1.63799e-006 -104.283 -59.3879 -88.4823 176.933 43.1797 177.71 -6.6158 8.68408 -3.51899 2.4588e-006 8.49791e-007 9.50649e-007 102.174 -55.7098 87.0109 -176.894 43.1761 -177.785 6.58777 8.80473 3.50678 3.18055e-015 0 -3.97569e-015 
-0.00726878 9.01877 68.1397 -0.00886773 -71.0095 179.991 0.029256 -2.47932 0.0463732 0.0606079 -4.95863 0.0941473 0.0606079 -4.95862 0.0941474 -8.13784e-007 -2.23462 -1.23415e-006 -0.051339 1.65681 -0.00912486 28.821 29.2245 -42.3321 105.997 -4.28364 114.192 -80.289 -76.4991 -39.0023 -21.0288 -25.6026 -26.8018 4.77083e-015 0 -0 -4.77083e-015 -3.18055e-015 -0 3.18055e-015 -6.36111e-015 -6.36111e-015 4.77083e-015 0 -0 -0.0128101 0.00232419 8.77968e-005 1.59028e-014 -1.27222e-014 -6.36111e-015 4.77083e-015 0 -0 -0.0160642 0.00299048 0.00085869 -6.36111e-015 6.36111e-015 3.18055e-015 4.77083e-015 0 -0 -0.0125801 0.00311423 0.00282897 -6.36111e-015 -6.36111e-015 -0 4.77083e-015 0 -0 -4.77083e-015 -3.18055e-015 -0 3.18055e-015 -6.36111e-015 -6.36111e-015 -29.5715 28.988 37.2247 -103.794 -9.09328 -115.62 79.4488 -76.4696 37.602 20.4128 -26.1148 26.5881 -4.77083e-015 -3.18055e-015 6.36111e-015 -1.11319e-014 3.18055e-015 -0 3.18055e-015 0 3.18055e-015 -4.77083e-015 -3.18055e-015 6.36111e-015 0.0129571 0.00231811 -8.33433e-005 -3.18055e-015 3.18055e-015 -3.18055e-015 -4.77083e-015 -3.18055e-015 6.36111e-015 0.0163429 0.00303563 -0.000873876 4.77083e-015 3.18055e-015 -3.18055e-015 -4.77083e-015 -3.18055e-015 6.36111e-015 0.0145714 0.00367806 -0.00326044 3.18055e-015 6.36111e-015 -1.59028e-014 -4.77083e-015 -3.18055e-015 6.36111e-015 -1.11319e-014 3.18055e-015 -0 3.18055e-015 0 3.18055e-015 -104.949 -59.4162 -89.1353 176.933 43.1769 177.711 -6.61503 8.67973 -3.51851 -3.58802e-006 -3.45112e-006 -2.16729e-006 102.799 -55.8168 87.6181 -176.895 43.1732 -177.786 6.58713 8.79859 3.50681 -7.95139e-015 3.18055e-015 1.11319e-014 
-0.00720683 8.97627 68.2395 -0.00886773 -71.0095 179.991 0.0297216 -2.46181 0.0464753 0.0615291 -4.92363 0.0943607 0.0615292 -4.92362 0.0943608 1.06841e-007 -2.7254 2.22753e-007 -0.0514036 1.25697 -0.00908049 29.1103 28.6699 -42.0708 105.855 -4.08573 114.216 -78.7113 -76.5556 -37.4513 -20.8729 -25.5987 -26.3004 -4.77083e-015 0 3.18055e-015 -3.18055e-015 1.27222e-014 9.54166e-015 -4.77083e-015 3.18055e-015 6.36111e-015 -4.77083e-015 0 3.18055e-015 -0.012824 0.00232547 8.55541e-005 -6.36111e-015 0 3.18055e-015 -4.77083e-015 0 3.18055e-015 -0.016055 0.00299383 0.000857708 -1.59028e-015 1.27222e-014 9.54166e-015 -4.77083e-015 0 3.18055e-015 -0.0126017 0.0031255 0.00283698 3.18055e-015 6.36111e-015 -0 -4.77083e-015 0 3.18055e-015 -3.18055e-015 1.27222e-014 9.54166e-015 -4.77083e-015 3.18055e-015 6.36111e-015 -29.866 28.4359 36.9563 -103.645 -8.90348 -115.636 77.8704 -76.5152 36.0467 20.1363 -26.0881 26.094 -1.59028e-015 6.36111e-015 -3.18055e-015 -3.18055e-015 6.36111e-015 3.18055e-015 -1.59028e-015 0 3.18055e-015 -1.59028e-015 6.36111e-015 -3.18055e-015 0.0129614 0.00232456 -8.60515e-005 7.95139e-015 6.36111e-015 -3.18055e-015 -1.59028e-015 6.36111e-015 -3.18055e-015 0.0163426 0.00303416 -0.000872495 -3.18055e-015 6.36111e-015 1.59028e-014 -1.59028e-015 6.36111e-015 -3.18055e-015 0.014566 0.00367422 -0.00327057 1.041e-005 2.54727e-006 6.3114e-006 -1.59028e-015 6.36111e-015 -3.18055e-015 -3.18055e-015 6.36111e-015 3.18055e-015 -1.59028e-015 0 3.18055e-015 -105.618 -59.4405 -89.7899 176.934 43.1739 177.712 -6.61426 8.67545 -3.51806 -7.20367e-007 -1.50339e-007 -4.29379e-007 103.429 -55.9201 88.2293 -176.895 43.1702 -177.786 6.58649 8.79244 3.50685 -7.94503e-031 6.36111e-015 7.15625e-015 
-0.00714015 8.9338 68.3394 -0.00886773 -71.0095 179.991 0.0301822 -2.44434 0.0465739 0.0624406 -4.88867 0.0945673 0.0624406 -4.88865 0.0945673 -4.59995e-007 -3.21622 -7.78425e-007 -0.0514675 0.857046 -0.00904043 29.401 28.1164 -41.8077 105.714 -3.88756 114.241 -77.1186 -76.6008 -35.8852 -20.717 -25.5934 -25.7991 -2.06736e-014 1.27222e-014 -9.54166e-015 -2.70347e-014 3.18055e-015 -9.54166e-015 -2.70347e-014 1.27222e-014 -6.36111e-015 -2.06736e-014 1.27222e-014 -9.54166e-015 -0.0128159 0.00232698 8.8138e-005 -9.54166e-015 -6.36111e-015 -0 -2.06736e-014 1.27222e-014 -9.54166e-015 -0.0160299 0.00299138 0.000858183 1.59028e-014 0 -3.18055e-015 -2.06736e-014 1.27222e-014 -9.54166e-015 -0.012565 0.00311421 0.0028195 -8.70841e-006 2.40415e-006 -4.17895e-006 -2.06736e-014 1.27222e-014 -9.54166e-015 -2.70347e-014 3.18055e-015 -9.54166e-015 -2.70347e-014 1.27222e-014 -6.36111e-015 -30.1621 27.885 36.6862 -103.495 -8.71442 -115.653 76.29 -76.5501 34.4896 19.8599 -26.0592 25.6 -1.82261e-006 1.3741e-006 -1.90304e-006 1.00831e-005 3.72737e-006 1.58143e-006 -3.18055e-015 6.36111e-015 9.54166e-015 -1.82261e-006 1.3741e-006 -1.90304e-006 0.0129818 0.00232405 -8.42776e-005 1.59028e-015 -9.54166e-015 3.18055e-015 -1.82261e-006 1.3741e-006 -1.90304e-006 0.0163519 0.00303783 -0.000875744 4.77083e-015 -3.18055e-015 -0 -1.82261e-006 1.3741e-006 -1.90304e-006 0.0145705 0.00367751 -0.00325402 3.18055e-015 6.36111e-015 -0 -1.82261e-006 1.3741e-006 -1.90304e-006 1.00831e-005 3.72737e-006 1.58143e-006 -3.18055e-015 6.36111e-015 9.54166e-015 -106.286 -59.4611 -90.4452 176.934 43.171 177.713 -6.61349 8.67106 -3.51761 -1.44621e-006 -1.07184e-006 -8.50563e-007 104.062 -56.0197 88.8442 -176.895 43.1673 -177.786 6.58587 8.78634 3.50694 4.66086e-006 -2.56755e-006 -2.7843e-006 
